<?xml version="1.0" encoding="UTF-8"?>
<svg viewBox="0 0 49.799828 49.799828" xmlns="http://www.w3.org/2000/svg" xmlns:xlink="http://www.w3.org/1999/xlink">
 <defs>
  <filter id="f" x="-.10168" y="-.09838" width="1.2034" height="1.1968">
   <feGaussianBlur stdDeviation=".75759"/>
  </filter>
  <linearGradient id="a">
   <stop stop-color="#fff" offset="0"/>
   <stop stop-color="#fff" stop-opacity="0" offset="1"/>
  </linearGradient>
  <linearGradient id="e" x2="0" y1="363.36" y2="312.36" gradientUnits="userSpaceOnUse">
   <stop stop-color="#862c2c" offset="0"/>
   <stop stop-color="#621b1b" offset="1"/>
  </linearGradient>
  <linearGradient id="d" x2="0" y1="-39.056" y2="-3.3468" gradientUnits="userSpaceOnUse" xlink:href="#a"/>
  <linearGradient id="c" x1="629.33" x2="632.48" y1="53.939" y2="25.597" gradientTransform="matrix(.38102 -.14867 .14892 .38037 40.393 169.94)" gradientUnits="userSpaceOnUse" xlink:href="#a"/>
  <radialGradient id="b" cx="814.5" cy="347.27" r="25.5" gradientUnits="userSpaceOnUse">
   <stop stop-color="#ffdcdc" offset="0"/>
   <stop stop-color="#cf7575" offset="1"/>
  </radialGradient>
 </defs>
 <g transform="matrix(1.4668 0 0 1.4668 -389.83 -97.082)">
  <path transform="matrix(.67892 0 0 .67892 -270.24 -146.22)" d="m838.5 337.86a24 24 0 1 1 -48 0 24 24 0 1 1 48 0z" fill="url(#b)" stroke="url(#e)" stroke-linecap="round" stroke-linejoin="round" stroke-width="2.0084"/>
  <path transform="matrix(1.151 0 0 1.151 -43.467 -13.083)" d="m276.29 76.462h14.902v15.402h-14.902z" filter="url(#f)" opacity=".5"/>
  <path d="m275.29 75.462h14.902v15.402h-14.902z" fill="#ffe4e4" stroke="#9f2b2b" stroke-linecap="round" stroke-linejoin="round" stroke-width="1.5"/>
  <path transform="matrix(.45298 0 0 .46321 30.183 86.293)" d="m581.24-21.201a23.688 17.854 0 1 1 -47.376 0 23.688 17.854 0 1 1 47.376 0z" fill="url(#d)"/>
  <path d="m269.44 89.353c3.1694 7.039 11.356 10.436 18.635 7.596s10.985-10.871 8.541-18.186c-1.9746 4.9484-5.9244 9.0944-11.282 11.185s-11.079 1.7114-15.894-0.59474z" fill="url(#c)"/>
 </g>
</svg>
